<svg xmlns="http://www.w3.org/2000/svg" width="84" height="84" fill="none" viewBox="0 0 84 84">
  <circle cx="42" cy="42" r="42" fill="#AEEA00" transform="matrix(-1 0 0 1 84 0)"/>
  <path stroke="#0A0A0A" stroke-linecap="round" stroke-width="2" d="M59.5 64H29.96A7.96 7.96 0 0 1 22 56.04v0a7.96 7.96 0 0 1 7.96-7.96h4.875a6.665 6.665 0 0 0 6.665-6.665v0a6.665 6.665 0 0 0-6.665-6.665H29.5"/>
  <path stroke="#0A0A0A" stroke-width="2" d="M31.563 17c-2.88 0-5.248 1.956-5.811 4.498v.001c-.084.386-.127.78-.127 1.19 0 2.551 1.51 4.761 3.172 6.406a18.068 18.068 0 0 0 2.756 2.221c.228-.153.522-.359.857-.614.814-.62 1.852-1.51 2.78-2.61l.002-.001c1.306-1.54 2.308-3.386 2.308-5.402 0-3.111-2.62-5.689-5.938-5.689Z"/>
  <path fill="#0A0A0A" d="M34 22.5c0 1.384-1.126 2.5-2.5 2.5a2.496 2.496 0 0 1-2.5-2.5c0-1.384 1.116-2.5 2.5-2.5s2.5 1.116 2.5 2.5Z"/>
  <path stroke="#0A0A0A" stroke-linejoin="bevel" stroke-width="2" d="m55.522 32.826-4.826 4.827v6.825l4.826 4.826h6.826l4.826-4.826v-6.825l-4.827-4.826-6.825-.001Z"/>
  <path stroke="#0A0A0A" stroke-width="2" d="M59 49v14"/>
  <path fill="#0A0A0A" d="M62 64c0 1.66-1.351 3-3 3-1.66 0-3-1.34-3-3s1.34-3 3-3 3 1.34 3 3Z"/>
</svg>
