<svg xmlns="http://www.w3.org/2000/svg" width="84" height="84" fill="none" viewBox="0 0 84 84">
  <circle cx="42" cy="42" r="42" fill="#AEEA00"/>
  <path stroke="#0A0A0A" stroke-linecap="round" stroke-linejoin="round" stroke-width="2" d="M44.33 52H31m-10.57 0C17.99 52 16 49.94 16 47.41V30.59c0-2.54 1.98-4.59 4.43-4.59h35.48c1.35 0 2.63.64 3.47 1.74l8.14 10.64c.31.41.48.9.48 1.42v8.21c0 2.21-1.79 4-4 4h-9.67M59 40H16"/>
  <path stroke="#0A0A0A" stroke-linecap="round" stroke-linejoin="round" stroke-width="2" d="M26 57a5 5 0 1 0 0-10 5 5 0 0 0 0 10Zm23.33 0a5 5 0 1 0 0-10 5 5 0 0 0 0 10ZM32 27.07V39.2m17.33-12.13V39.2M65 40h3v6h-3c-1.1 0-2-.9-2-2v-2c0-1.1.9-2 2-2Z"/>
  <path fill="#0A0A0A" d="M26 54a2 2 0 1 0 0-4 2 2 0 0 0 0 4Zm23.33 0a2 2 0 1 0 0-4 2 2 0 0 0 0 4Z"/>
</svg>
