<?xml version="1.0" encoding="UTF-8" standalone="no"?><!DOCTYPE svg PUBLIC "-//W3C//DTD SVG 1.1//EN" "http://www.w3.org/Graphics/SVG/1.1/DTD/svg11.dtd"><svg width="200px" height="200px" version="1.1" xmlns="http://www.w3.org/2000/svg" xmlns:xlink="http://www.w3.org/1999/xlink" xml:space="preserve" xmlns:serif="http://www.serif.com/" style="fill-rule:evenodd;clip-rule:evenodd;stroke-miterlimit:10;"><path d="M100.249,199.005C155.202,199.005 199.751,154.456 199.751,99.503C199.751,44.548 155.202,0 100.249,0C45.295,0 0.746,44.549 0.746,99.502C0.746,154.456 45.295,199.005 100.249,199.005Z" style="fill:white;fill-rule:nonzero;"/><g><clipPath id="_clip1"><rect x="0" y="0" width="200" height="200"/></clipPath><g clip-path="url(#_clip1)"><path d="M100,200C155.228,200 200,155.228 200,100C200,44.772 155.228,0 100,0C44.772,0 0,44.772 0,100C0,155.228 44.772,200 100,200Z" style="fill:rgb(174,234,0);fill-rule:nonzero;"/><path d="M100,115C108.284,115 115,108.284 115,100C115,91.716 108.284,85 100,85C91.716,85 85,91.716 85,100C85,108.284 91.716,115 100,115Z" style="fill:rgb(10,10,10);fill-rule:nonzero;"/><path d="M75.765,124.471C62.353,111.059 62.353,89.176 75.765,75.765M124.235,75.53C137.647,88.941 137.647,110.823 124.235,124.235M57.177,143.059C33.412,119.294 33.412,80.941 57.177,57.177M142.824,56.941C166.588,80.706 166.588,119.059 142.824,142.824" style="fill:none;fill-rule:nonzero;stroke:rgb(10,10,10);stroke-width:10px;"/></g></g></svg>