<?xml version="1.0" encoding="UTF-8" standalone="no"?><!DOCTYPE svg PUBLIC "-//W3C//DTD SVG 1.1//EN" "http://www.w3.org/Graphics/SVG/1.1/DTD/svg11.dtd"><svg width="200px" height="200px" version="1.1" xmlns="http://www.w3.org/2000/svg" xmlns:xlink="http://www.w3.org/1999/xlink" xml:space="preserve" xmlns:serif="http://www.serif.com/" style="fill-rule:evenodd;clip-rule:evenodd;stroke-linejoin:round;stroke-miterlimit:2;"><g><path d="M100,200C155.228,200 200,155.228 200,100C200,44.772 155.228,0 100,0C44.772,0 0,44.772 0,100C0,155.228 44.772,200 100,200Z" style="fill:rgb(174,234,0);fill-rule:nonzero;"/><path d="M40,112.575C47.07,112.575 52.8,106.844 52.8,99.775C52.8,92.705 47.07,86.975 40,86.975C32.931,86.975 27.2,92.705 27.2,99.775C27.2,106.844 32.931,112.575 40,112.575ZM99.825,112.575C106.894,112.575 112.625,106.844 112.625,99.775C112.625,92.705 106.894,86.975 99.825,86.975C92.755,86.975 87.025,92.705 87.025,99.775C87.025,106.844 92.755,112.575 99.825,112.575ZM159.625,112.575C166.694,112.575 172.425,106.844 172.425,99.775C172.425,92.705 166.694,86.975 159.625,86.975C152.556,86.975 146.825,92.705 146.825,99.775C146.825,106.844 152.556,112.575 159.625,112.575ZM62.775,143.2L52.15,143.2L78.15,55.475L88.775,55.475L62.775,143.2ZM122.6,143.2L111.975,143.2L137.975,55.475L148.6,55.475L122.6,143.2Z" style="fill:rgb(10,10,10);fill-rule:nonzero;"/></g></svg>