<svg xmlns="http://www.w3.org/2000/svg" width="200" height="200" fill="none" viewBox="0 0 200 200">
  <g clip-path="url(#a)">
    <path fill="#fff" d="M100 200c55.228 0 100-44.772 100-100S155.228 0 100 0 0 44.772 0 100s44.772 100 100 100Z"/>
    <path fill="#0A0A0A" d="M40 112.575c7.07 0 12.8-5.731 12.8-12.8 0-7.07-5.73-12.8-12.8-12.8-7.069 0-12.8 5.73-12.8 12.8 0 7.069 5.731 12.8 12.8 12.8Zm59.825 0c7.069 0 12.8-5.731 12.8-12.8 0-7.07-5.731-12.8-12.8-12.8-7.07 0-12.8 5.73-12.8 12.8 0 7.069 5.73 12.8 12.8 12.8Zm59.8 0c7.069 0 12.8-5.731 12.8-12.8 0-7.07-5.731-12.8-12.8-12.8-7.069 0-12.8 5.73-12.8 12.8 0 7.069 5.731 12.8 12.8 12.8ZM62.775 143.2H52.15l26-87.725h10.625l-26 87.725Zm59.825 0h-10.625l26-87.725H148.6l-26 87.725Z"/>
  </g>
  <defs>
    <clipPath id="a">
      <path fill="#fff" d="M0 0h200v200H0z"/>
    </clipPath>
  </defs>
</svg>
